<svg width="25" height="25" viewBox="0 0 25 25" fill="none" xmlns="http://www.w3.org/2000/svg">
<path d="M0 18.75C0 15.2651 0 13.5226 0.288221 12.0736C1.47182 6.12329 6.12329 1.47182 12.0736 0.288221C13.5226 0 15.2651 0 18.75 0C19.9116 0 20.4925 0 20.9755 0.0960736C22.9589 0.490607 24.5094 2.0411 24.9039 4.02455C25 4.50754 25 5.08836 25 6.25C25 9.73491 25 11.4774 24.7118 12.9264C23.5282 18.8767 18.8767 23.5282 12.9264 24.7118C11.4774 25 9.73491 25 6.25 25C5.08836 25 4.50754 25 4.02455 24.9039C2.0411 24.5094 0.490607 22.9589 0.0960736 20.9755C0 20.4925 0 19.9116 0 18.75Z" fill="white"/>
</svg>
