<svg width="25" height="25" viewBox="0 0 25 25" fill="none" xmlns="http://www.w3.org/2000/svg">
<path d="M0 6.25C0 5.08836 0 4.50754 0.0960736 4.02455C0.490607 2.0411 2.0411 0.490607 4.02455 0.0960736C4.50754 0 5.08836 0 6.25 0C9.73491 0 11.4774 0 12.9264 0.288221C18.8767 1.47182 23.5282 6.12329 24.7118 12.0736C25 13.5226 25 15.2651 25 18.75C25 19.9116 25 20.4925 24.9039 20.9755C24.5094 22.9589 22.9589 24.5094 20.9755 24.9039C20.4925 25 19.9116 25 18.75 25C15.2651 25 13.5226 25 12.0736 24.7118C6.12329 23.5282 1.47182 18.8767 0.288221 12.9264C0 11.4774 0 9.73491 0 6.25Z" fill="white"/>
</svg>
