<svg width="160" height="30" viewBox="0 0 160 30" fill="none" xmlns="http://www.w3.org/2000/svg">
<path d="M14.0849 24.24C12.8529 24.24 11.7089 24.024 10.6529 23.592C9.61294 23.16 8.70894 22.56 7.94094 21.792C7.18894 21.008 6.59694 20.088 6.16494 19.032C5.74894 17.976 5.54094 16.816 5.54094 15.552C5.54094 14.304 5.74894 13.152 6.16494 12.096C6.59694 11.04 7.18894 10.12 7.94094 9.336C8.70894 8.552 9.61294 7.944 10.6529 7.512C11.7089 7.08 12.8529 6.864 14.0849 6.864C15.3169 6.864 16.4449 7.08 17.4689 7.512C18.5089 7.944 19.4129 8.552 20.1809 9.336C20.9489 10.12 21.5409 11.048 21.9569 12.12C22.3889 13.176 22.6049 14.32 22.6049 15.552C22.6049 16.8 22.3889 17.952 21.9569 19.008C21.5409 20.064 20.9489 20.984 20.1809 21.768C19.4129 22.552 18.5089 23.16 17.4689 23.592C16.4449 24.024 15.3169 24.24 14.0849 24.24ZM14.0849 20.832C14.7889 20.832 15.4369 20.704 16.0289 20.448C16.6209 20.176 17.1329 19.808 17.5649 19.344C18.0129 18.864 18.3569 18.304 18.5969 17.664C18.8369 17.024 18.9569 16.32 18.9569 15.552C18.9569 14.8 18.8369 14.104 18.5969 13.464C18.3569 12.824 18.0129 12.264 17.5649 11.784C17.1329 11.304 16.6209 10.936 16.0289 10.68C15.4369 10.408 14.7889 10.272 14.0849 10.272C13.3809 10.272 12.7249 10.408 12.1169 10.68C11.5249 10.936 11.0049 11.304 10.5569 11.784C10.1249 12.248 9.78894 12.808 9.54894 13.464C9.30894 14.104 9.18894 14.808 9.18894 15.576C9.18894 16.584 9.39694 17.488 9.81294 18.288C10.2449 19.072 10.8209 19.696 11.5409 20.16C12.2769 20.608 13.1249 20.832 14.0849 20.832ZM25.3837 24V11.304H28.6717L28.7917 15.384L28.2157 14.52C28.4237 13.88 28.7357 13.296 29.1517 12.768C29.5837 12.24 30.0877 11.824 30.6637 11.52C31.2557 11.2 31.8717 11.04 32.5117 11.04C32.7997 11.04 33.0637 11.064 33.3037 11.112C33.5597 11.144 33.7757 11.2 33.9517 11.28L33.0397 15C32.8637 14.92 32.6317 14.848 32.3437 14.784C32.0717 14.704 31.7917 14.664 31.5037 14.664C31.1357 14.664 30.7837 14.736 30.4477 14.88C30.1277 15.008 29.8397 15.2 29.5837 15.456C29.3437 15.696 29.1517 15.984 29.0077 16.32C28.8797 16.656 28.8157 17.032 28.8157 17.448V24H25.3837ZM40.8881 24.24C39.6721 24.24 38.5841 23.952 37.6241 23.376C36.6641 22.8 35.9041 22.016 35.3441 21.024C34.8001 20.016 34.5281 18.896 34.5281 17.664C34.5281 16.4 34.8001 15.272 35.3441 14.28C35.9041 13.272 36.6641 12.48 37.6241 11.904C38.5841 11.328 39.6721 11.04 40.8881 11.04C42.0241 11.04 43.0561 11.256 43.9841 11.688C44.9281 12.104 45.6641 12.68 46.1921 13.416L44.3441 15.672C44.1201 15.368 43.8401 15.088 43.5041 14.832C43.1681 14.576 42.8001 14.376 42.4001 14.232C42.0161 14.088 41.6161 14.016 41.2001 14.016C40.5441 14.016 39.9601 14.176 39.4481 14.496C38.9361 14.8 38.5361 15.232 38.2481 15.792C37.9601 16.336 37.8161 16.952 37.8161 17.64C37.8161 18.312 37.9681 18.92 38.2721 19.464C38.5761 20.008 38.9841 20.44 39.4961 20.76C40.0081 21.08 40.5761 21.24 41.2001 21.24C41.6161 21.24 42.0081 21.184 42.3761 21.072C42.7601 20.944 43.1121 20.76 43.4321 20.52C43.7521 20.28 44.0561 20 44.3441 19.68L46.1921 21.936C45.6641 22.624 44.9121 23.184 43.9361 23.616C42.9761 24.032 41.9601 24.24 40.8881 24.24ZM48.3759 24V6.24H51.7599V13.896L51.0879 14.184C51.2479 13.608 51.5599 13.088 52.0239 12.624C52.4879 12.144 53.0399 11.76 53.6799 11.472C54.3199 11.184 54.9839 11.04 55.6719 11.04C56.6319 11.04 57.4319 11.232 58.0719 11.616C58.7279 12 59.2159 12.584 59.5359 13.368C59.8719 14.136 60.0399 15.096 60.0399 16.248V24H56.6319V16.488C56.6319 15.912 56.5519 15.432 56.3919 15.048C56.2319 14.664 55.9919 14.384 55.6719 14.208C55.3519 14.032 54.9439 13.952 54.4479 13.968C54.0639 13.968 53.7119 14.032 53.3919 14.16C53.0719 14.272 52.7839 14.44 52.5279 14.664C52.2879 14.888 52.1039 15.144 51.9759 15.432C51.8479 15.72 51.7839 16.04 51.7839 16.392V24H50.0799C49.7279 24 49.4079 24 49.1199 24C48.8319 24 48.5839 24 48.3759 24ZM63.5936 24V11.304H67.0016V24H63.5936ZM65.2736 8.688C64.6176 8.688 64.1056 8.528 63.7376 8.208C63.3696 7.888 63.1856 7.432 63.1856 6.84C63.1856 6.296 63.3696 5.856 63.7376 5.52C64.1216 5.168 64.6416 4.992 65.2976 4.992C65.9376 4.992 66.4416 5.16 66.8096 5.496C67.1776 5.816 67.3616 6.264 67.3616 6.84C67.3616 7.4 67.1776 7.848 66.8096 8.184C66.4416 8.52 65.9296 8.688 65.2736 8.688ZM75.6569 24.24C74.5529 24.24 73.5529 23.96 72.6569 23.4C71.7769 22.84 71.0809 22.064 70.5689 21.072C70.0729 20.064 69.8249 18.928 69.8249 17.664C69.8249 16.384 70.0729 15.248 70.5689 14.256C71.0809 13.264 71.7769 12.48 72.6569 11.904C73.5369 11.328 74.5369 11.04 75.6569 11.04C76.2489 11.04 76.8169 11.136 77.3609 11.328C77.9209 11.504 78.4169 11.752 78.8489 12.072C79.2809 12.392 79.6329 12.752 79.9049 13.152C80.1769 13.536 80.3369 13.936 80.3849 14.352L79.5209 14.52V6.24H82.9049V24H79.6889L79.5449 21.072L80.2169 21.168C80.2009 21.552 80.0649 21.928 79.8089 22.296C79.5529 22.664 79.2089 23 78.7769 23.304C78.3609 23.592 77.8809 23.824 77.3369 24C76.8089 24.16 76.2489 24.24 75.6569 24.24ZM76.4009 21.408C77.0569 21.408 77.6169 21.248 78.0809 20.928C78.5609 20.608 78.9369 20.168 79.2089 19.608C79.4809 19.048 79.6169 18.4 79.6169 17.664C79.6169 16.912 79.4809 16.256 79.2089 15.696C78.9369 15.12 78.5609 14.68 78.0809 14.376C77.6169 14.056 77.0569 13.896 76.4009 13.896C75.7769 13.896 75.2249 14.056 74.7449 14.376C74.2649 14.68 73.8889 15.12 73.6169 15.696C73.3609 16.256 73.2329 16.912 73.2329 17.664C73.2329 18.4 73.3609 19.048 73.6169 19.608C73.8889 20.168 74.2649 20.608 74.7449 20.928C75.2249 21.248 75.7769 21.408 76.4009 21.408ZM99.4679 24.24C97.8999 24.24 96.5559 23.96 95.4359 23.4C94.3319 22.824 93.3799 21.992 92.5799 20.904L94.8359 18.36C95.6199 19.448 96.3959 20.192 97.1639 20.592C97.9479 20.976 98.7879 21.168 99.6839 21.168C100.18 21.168 100.62 21.096 101.004 20.952C101.404 20.808 101.716 20.608 101.94 20.352C102.18 20.096 102.3 19.8 102.3 19.464C102.3 19.208 102.244 18.976 102.132 18.768C102.02 18.544 101.86 18.352 101.652 18.192C101.444 18.016 101.196 17.864 100.908 17.736C100.62 17.592 100.3 17.472 99.9479 17.376C99.5959 17.28 99.2119 17.192 98.7959 17.112C97.8999 16.92 97.1159 16.672 96.4439 16.368C95.7719 16.064 95.2119 15.696 94.7639 15.264C94.3159 14.832 93.9799 14.336 93.7559 13.776C93.5479 13.2 93.4439 12.56 93.4439 11.856C93.4439 10.864 93.7239 10 94.2839 9.264C94.8439 8.512 95.5879 7.928 96.5159 7.512C97.4439 7.08 98.4679 6.864 99.5879 6.864C101.108 6.864 102.356 7.12 103.332 7.632C104.324 8.144 105.116 8.864 105.708 9.792L103.404 12.048C102.908 11.36 102.34 10.84 101.7 10.488C101.06 10.136 100.372 9.96 99.6359 9.96C99.1239 9.96 98.6679 10.032 98.2679 10.176C97.8839 10.304 97.5879 10.504 97.3799 10.776C97.1719 11.032 97.0679 11.336 97.0679 11.688C97.0679 11.976 97.1399 12.232 97.2839 12.456C97.4279 12.68 97.6279 12.88 97.8839 13.056C98.1559 13.216 98.4839 13.36 98.8679 13.488C99.2519 13.616 99.6759 13.72 100.14 13.8C101.02 13.976 101.812 14.216 102.516 14.52C103.22 14.808 103.82 15.16 104.316 15.576C104.828 15.992 105.22 16.472 105.492 17.016C105.764 17.56 105.9 18.168 105.9 18.84C105.9 19.976 105.628 20.944 105.084 21.744C104.54 22.544 103.788 23.16 102.828 23.592C101.868 24.024 100.748 24.24 99.4679 24.24ZM109.905 24V8.088H113.313V24H109.905ZM107.529 14.352V11.304H115.929V14.352H107.529ZM123.889 24.24C122.593 24.24 121.441 23.96 120.433 23.4C119.425 22.824 118.625 22.04 118.033 21.048C117.457 20.056 117.169 18.928 117.169 17.664C117.169 16.384 117.457 15.248 118.033 14.256C118.625 13.248 119.425 12.464 120.433 11.904C121.441 11.328 122.593 11.04 123.889 11.04C125.185 11.04 126.337 11.328 127.345 11.904C128.353 12.464 129.145 13.248 129.721 14.256C130.313 15.248 130.609 16.384 130.609 17.664C130.609 18.928 130.313 20.056 129.721 21.048C129.145 22.04 128.353 22.824 127.345 23.4C126.337 23.96 125.185 24.24 123.889 24.24ZM123.889 21.288C124.513 21.288 125.073 21.128 125.569 20.808C126.065 20.488 126.449 20.056 126.721 19.512C127.009 18.968 127.145 18.352 127.129 17.664C127.145 16.944 127.009 16.312 126.721 15.768C126.449 15.208 126.065 14.776 125.569 14.472C125.073 14.152 124.513 13.992 123.889 13.992C123.265 13.992 122.697 14.152 122.185 14.472C121.689 14.792 121.297 15.224 121.009 15.768C120.737 16.312 120.609 16.944 120.625 17.664C120.609 18.352 120.737 18.968 121.009 19.512C121.297 20.056 121.689 20.488 122.185 20.808C122.697 21.128 123.265 21.288 123.889 21.288ZM133.173 24V11.304H136.461L136.581 15.384L136.005 14.52C136.213 13.88 136.525 13.296 136.941 12.768C137.373 12.24 137.877 11.824 138.453 11.52C139.045 11.2 139.661 11.04 140.301 11.04C140.589 11.04 140.853 11.064 141.093 11.112C141.349 11.144 141.565 11.2 141.741 11.28L140.829 15C140.653 14.92 140.421 14.848 140.133 14.784C139.861 14.704 139.581 14.664 139.293 14.664C138.925 14.664 138.573 14.736 138.237 14.88C137.917 15.008 137.629 15.2 137.373 15.456C137.133 15.696 136.941 15.984 136.797 16.32C136.669 16.656 136.605 17.032 136.605 17.448V24H133.173ZM149.181 24.24C147.805 24.24 146.597 23.96 145.557 23.4C144.533 22.84 143.733 22.072 143.157 21.096C142.597 20.12 142.317 19.008 142.317 17.76C142.317 16.768 142.477 15.864 142.797 15.048C143.117 14.216 143.565 13.504 144.141 12.912C144.717 12.32 145.397 11.864 146.181 11.544C146.981 11.208 147.853 11.04 148.797 11.04C149.661 11.04 150.453 11.2 151.173 11.52C151.909 11.824 152.541 12.264 153.069 12.84C153.613 13.4 154.029 14.064 154.317 14.832C154.605 15.6 154.741 16.44 154.725 17.352L154.701 18.408H144.501L143.949 16.296H151.893L151.485 16.728V16.224C151.453 15.776 151.309 15.384 151.053 15.048C150.813 14.712 150.501 14.448 150.117 14.256C149.733 14.048 149.309 13.944 148.845 13.944C148.125 13.944 147.517 14.088 147.021 14.376C146.541 14.648 146.173 15.048 145.917 15.576C145.677 16.088 145.557 16.728 145.557 17.496C145.557 18.248 145.717 18.912 146.037 19.488C146.357 20.048 146.813 20.48 147.405 20.784C148.013 21.088 148.725 21.24 149.541 21.24C150.101 21.24 150.613 21.152 151.077 20.976C151.541 20.8 152.045 20.496 152.589 20.064L154.197 22.344C153.749 22.744 153.245 23.088 152.685 23.376C152.125 23.664 151.549 23.88 150.957 24.024C150.365 24.168 149.773 24.24 149.181 24.24Z" fill="white"/>
</svg>
